<svg width="24" height="24" viewBox="0 0 24 24" fill="none" xmlns="http://www.w3.org/2000/svg">
<path d="M14.6111 6.62466C14.611 6.75263 14.641 6.87665 14.696 6.98874C14.7507 7.1004 14.8281 7.19587 14.9188 7.27237C15.0093 7.34877 15.1124 7.40579 15.2206 7.44356C15.3286 7.48128 15.4421 7.5 15.5553 7.5L15.5556 7C15.6139 7.00003 15.6717 6.99035 15.7257 6.97151C15.7796 6.95268 15.8286 6.92506 15.8699 6.89023C15.9112 6.8554 15.9439 6.81405 15.9662 6.76854C15.9886 6.72303 16 6.67425 16 6.625H16.5V6.62466V4.375C16.5 3.31722 16.0013 2.32394 15.1509 1.60637C14.303 0.890951 13.1686 0.5 12 0.5C10.8314 0.5 9.69704 0.890951 8.84914 1.60637C7.99869 2.32394 7.5 3.31722 7.5 4.375V6.625C7.5 6.88714 7.62409 7.11735 7.80774 7.27231C7.98885 7.42512 8.21883 7.5 8.44444 7.5C8.67006 7.5 8.90004 7.42512 9.08115 7.27231C9.26481 7.11735 9.38889 6.88713 9.38889 6.625V4.375C9.38889 3.84149 9.63941 3.30864 10.1225 2.90099C10.6082 2.49119 11.2826 2.25 12 2.25C12.7174 2.25 13.3918 2.49119 13.8775 2.90099C14.3606 3.30864 14.6111 3.84149 14.6111 4.375V6.62466ZM14.6111 6.62466L15.1111 6.625H14.6111V6.62466Z" fill="#4780C4" stroke="#4780C4"/>
<path d="M5.64229 22.9999L5.64229 23H5.65039H18.3496V22.5L18.3577 22.9999C18.7044 22.9943 19.0459 22.9149 19.3595 22.767C19.6732 22.6191 19.9517 22.4061 20.1765 22.1421L20.1786 22.1397C20.4907 21.7685 20.7227 21.3369 20.86 20.8718C20.9969 20.4081 21.0368 19.921 20.9771 19.4412L19.5468 6.4453L19.4978 6H19.0498H4.9502H4.50221L4.4532 6.4453L3.02294 19.4411C2.96321 19.921 3.00306 20.408 3.14001 20.8718C3.27734 21.3369 3.50933 21.7685 3.82142 22.1397L3.82142 22.1397L3.82349 22.1421C4.04834 22.4061 4.32685 22.6191 4.64046 22.767C4.95407 22.9149 5.2956 22.9943 5.64229 22.9999ZM5.00904 19.6769L5.00921 19.6769L5.01068 19.6636L6.29466 8H17.7053L18.9893 19.6636L18.9892 19.6636L18.991 19.6769C19.0191 19.8817 19.0046 20.0902 18.9484 20.2892C18.8921 20.4882 18.7954 20.6734 18.6643 20.8332L18.6637 20.8339C18.623 20.8837 18.5722 20.9243 18.5146 20.953C18.4594 20.9805 18.3993 20.9965 18.3378 21H5.66216C5.6007 20.9965 5.54056 20.9805 5.48541 20.953C5.42784 20.9243 5.37701 20.8837 5.33629 20.8339L5.33576 20.8332C5.2046 20.6734 5.10787 20.4882 5.05165 20.2892C4.99543 20.0902 4.98092 19.8817 5.00904 19.6769Z" fill="#4780C4" stroke="#4780C4"/>
</svg>
