<svg width="49" height="42" viewBox="0 0 49 42" fill="none" xmlns="http://www.w3.org/2000/svg">
<path d="M22.9185 7.73314L24.6308 10.5705L26.3432 7.73314C28.2831 4.51871 31.676 2.49976 35.5192 2.49976C41.5024 2.49976 46.5854 7.70305 46.5854 14.2775C46.5854 17.1513 45.3273 20.1956 43.2005 23.2537C41.0858 26.2944 38.2263 29.1844 35.3016 31.7076C32.3858 34.2232 29.4606 36.3271 27.2593 37.8042C26.1742 38.5324 25.2696 39.1052 24.6347 39.4968C23.9995 39.1021 23.0936 38.5247 22.0069 37.7912C19.805 36.3048 16.8788 34.1898 13.9621 31.6664C11.0365 29.1353 8.17576 26.2408 6.06026 23.2039C3.93168 20.1483 2.6763 17.1194 2.6763 14.2775C2.6763 7.70305 7.75924 2.49976 13.7424 2.49976C17.5856 2.49976 20.9786 4.51871 22.9185 7.73314Z" stroke="white" stroke-width="4"/>
</svg>
