<svg width="37" height="32" viewBox="0 0 37 32" fill="none" xmlns="http://www.w3.org/2000/svg">
<path d="M16.7865 5.83153L18.5 8.67774L20.2135 5.83153C21.6338 3.4723 24.1095 2 26.9091 2C31.2514 2 35 5.79856 35 10.6667C35 12.7641 34.0817 15.0312 32.4661 17.36C30.8625 19.6715 28.6845 21.8809 26.4417 23.8206C24.2077 25.7527 21.9642 27.3704 20.2743 28.5072C19.5714 28.9801 18.9674 29.3675 18.5038 29.6576C18.0398 29.3652 17.4347 28.9744 16.7302 28.4978C15.0397 27.3538 12.7953 25.7274 10.5604 23.7891C8.31654 21.8431 6.13744 19.63 4.53301 17.3212C2.91563 14.9937 2 12.7387 2 10.6667C2 5.79856 5.74859 2 10.0909 2C12.8905 2 15.3662 3.4723 16.7865 5.83153Z" stroke="#4780C4" stroke-width="4"/>
</svg>
