<svg width="24" height="24" viewBox="0 0 24 24" fill="none" xmlns="http://www.w3.org/2000/svg">
<g clip-path="url(#clip0_2_414)">
<path d="M11.5961 22.9172C11.722 22.9721 11.8579 23.0005 11.9953 23.0005L12.7306 22.6798L21.5633 13.1479L21.5633 13.148L21.5669 13.144C22.8111 11.7725 23.5003 9.98703 23.5003 8.13525C23.5003 6.28347 22.8111 4.49798 21.5669 3.12646C20.9662 2.46252 20.2336 1.93125 19.416 1.5666C18.598 1.20186 17.713 1.01187 16.8174 1.00879H16.8157L16.8147 1.00879L16.8131 1.00879C15.9172 1.01175 15.0318 1.20167 14.2136 1.5664C13.3961 1.93076 12.6637 2.46157 12.063 3.12492L11.9959 3.19743L11.9283 3.12441C11.3265 2.46195 10.5941 1.93121 9.77721 1.56561C8.9595 1.19964 8.07483 1.00706 7.17898 1.00002L7.17898 0.999947L7.17074 1.00002C6.27577 1.00773 5.39209 1.20064 4.57533 1.56658C3.75856 1.93253 3.02639 2.46359 2.42491 3.12635L2.4249 3.12634L2.42322 3.12822C1.18781 4.50334 0.504395 6.28665 0.504395 8.13522C0.504395 9.98379 1.18781 11.7671 2.42322 13.1422L2.42317 13.1423L2.42843 13.1479L11.262 22.6798L11.6292 22.3403L11.2624 22.6802L11.2621 22.6798C11.3558 22.7811 11.4695 22.862 11.5961 22.9172ZM20.0933 11.7903L11.9963 20.5295L3.898 11.791C2.99694 10.7864 2.49854 9.4845 2.49854 8.13498C2.49854 6.78448 2.99766 5.48164 3.89996 4.47683C4.31529 4.0179 4.82103 3.6498 5.38542 3.39565C5.9485 3.14209 6.55782 3.00742 7.17528 3.00003C7.79349 3.00686 8.40365 3.14126 8.96754 3.39485C9.533 3.64914 10.0397 4.01777 10.4557 4.47752L10.4556 4.47755L10.4598 4.48204L11.2635 5.34874L11.269 5.35464L11.2746 5.36036C11.3691 5.45587 11.4816 5.53169 11.6055 5.58344C11.7295 5.63519 11.8625 5.66184 11.9968 5.66184C12.1312 5.66184 12.2642 5.63519 12.3881 5.58344C12.5121 5.53169 12.6246 5.45587 12.719 5.36036L12.7249 5.35442L12.7306 5.3483L13.5323 4.4816L13.5324 4.48162L13.5365 4.47698C13.9511 4.01746 14.457 3.64952 15.0219 3.3967C15.5861 3.14421 16.1967 3.01209 16.8147 3.00877C17.4325 3.01201 18.0428 3.14409 18.6066 3.39656C19.1711 3.64936 19.6766 4.01729 20.0907 4.47679L20.0914 4.47749C20.9982 5.47985 21.5003 6.78332 21.5003 8.13498C21.5003 9.48567 20.9989 10.7882 20.0933 11.7903ZM16.8147 1.50879H16.8157L14.4171 2.02308C15.1718 1.68668 15.9884 1.51152 16.8147 1.50879Z" fill="#4780C4" stroke="#4780C4"/>
</g>
<defs>
<clipPath id="clip0_2_414">
<rect width="24" height="24" fill="white"/>
</clipPath>
</defs>
</svg>
