<svg width="48" height="45" viewBox="0 0 48 45" fill="none" xmlns="http://www.w3.org/2000/svg">
<path fill-rule="evenodd" clip-rule="evenodd" d="M37.8516 35.6115C37.8516 36.6465 36.9591 37.4865 35.8594 37.4865H11.9531C10.8534 37.4865 9.96094 36.6465 9.96094 35.6115V14.9865H13.9453V16.8615C13.9453 17.8984 14.8358 18.7365 15.9375 18.7365C17.0392 18.7365 17.9297 17.8984 17.9297 16.8615V14.9865H29.8828V16.8615C29.8828 17.8984 30.7733 18.7365 31.875 18.7365C32.9767 18.7365 33.8672 17.8984 33.8672 16.8615V14.9865H37.8516V35.6115ZM23.9062 6.72339C26.7969 6.72339 29.2134 8.66589 29.7633 11.2365H18.0492C18.5991 8.66589 21.0156 6.72339 23.9062 6.72339ZM39.8438 11.2365H33.7477C33.156 6.59589 28.9943 2.97339 23.9062 2.97339C18.8182 2.97339 14.6565 6.59589 14.0648 11.2365H7.96875C6.86707 11.2365 5.97656 12.0746 5.97656 13.1115V35.6115C5.97656 38.7128 8.65805 41.2365 11.9531 41.2365H35.8594C39.1545 41.2365 41.8359 38.7128 41.8359 35.6115V13.1115C41.8359 12.0746 40.9454 11.2365 39.8438 11.2365Z" fill="#4780C4"/>
</svg>
