<svg width="93" height="93" viewBox="0 0 93 93" fill="none" xmlns="http://www.w3.org/2000/svg">
<g clip-path="url(#clip0_80_160)">
<path fill-rule="evenodd" clip-rule="evenodd" d="M92.9539 46.4769C92.9539 72.1454 72.1454 92.9539 46.4769 92.9539C20.8084 92.9539 0 72.1454 0 46.4769C0 20.8084 20.8084 0 46.4769 0C72.1454 0 92.9539 20.8084 92.9539 46.4769ZM48.1424 34.3113C43.6219 36.1916 34.5871 40.0832 21.0381 45.9863C18.838 46.8612 17.6855 47.7171 17.5805 48.5541C17.4032 49.9685 19.1745 50.5254 21.5865 51.2839C21.9146 51.3871 22.2545 51.4939 22.603 51.6072C24.9761 52.3786 28.1682 53.2811 29.8277 53.3169C31.333 53.3494 33.0131 52.7288 34.8679 51.4551C47.5271 42.9098 54.0619 38.5906 54.4722 38.4975C54.7616 38.4318 55.1627 38.3492 55.4344 38.5907C55.7062 38.8323 55.6795 39.2897 55.6507 39.4124C55.4752 40.1605 48.5224 46.6245 44.9243 49.9696C43.8026 51.0124 43.0069 51.7521 42.8443 51.9211C42.4799 52.2995 42.1086 52.6575 41.7517 53.0015C39.5471 55.1268 37.8938 56.7205 41.8432 59.3231C43.7411 60.5738 45.2599 61.608 46.775 62.6398C48.4296 63.7667 50.08 64.8906 52.2153 66.2903C52.7594 66.6469 53.2789 67.0173 53.785 67.3781C55.7106 68.7509 57.4406 69.9842 59.5779 69.7875C60.8199 69.6733 62.1027 68.5055 62.7542 65.0226C64.2939 56.7915 67.3204 38.9572 68.0198 31.6081C68.0811 30.9642 68.004 30.1402 67.9421 29.7784C67.8802 29.4167 67.7508 28.9013 67.2806 28.5198C66.7238 28.0679 65.8641 27.9727 65.4797 27.9794C63.7316 28.0102 61.0496 28.9428 48.1424 34.3113Z" fill="#4780C4"/>
</g>
<defs>
<clipPath id="clip0_80_160">
<rect width="92.9538" height="92.9538" fill="white"/>
</clipPath>
</defs>
</svg>
