<svg width="93" height="93" viewBox="0 0 93 93" fill="none" xmlns="http://www.w3.org/2000/svg">
<g clip-path="url(#clip0_80_161)">
<path fill-rule="evenodd" clip-rule="evenodd" d="M6.58003 6.53413C0.0458984 13.0683 0.0458984 23.5847 0.0458984 44.6179V48.336C0.0458984 69.3691 0.0458984 79.8855 6.58003 86.4198C13.1142 92.9539 23.6306 92.9539 44.6637 92.9539H48.3819C69.415 92.9539 79.9314 92.9539 86.4657 86.4198C92.9998 79.8855 92.9998 69.3691 92.9998 48.336V44.6179C92.9998 23.5847 92.9998 13.0683 86.4657 6.53413C79.9314 0 69.415 0 48.3819 0H44.6637C23.6306 0 13.1142 0 6.58003 6.53413ZM15.7321 28.2737C16.2356 52.4417 28.3196 66.9657 49.5053 66.9657H50.7061V53.1388C58.491 53.9134 64.3777 59.6069 66.7403 66.9657H77.74C74.719 55.9662 66.7788 49.8854 61.8213 47.5616C66.7788 44.6955 73.7504 37.724 75.4158 28.2737H65.4231C63.2541 35.9423 56.8256 42.9139 50.7061 43.5723V28.2737H40.7132V55.0754C34.5163 53.5261 26.6929 46.0123 26.3443 28.2737H15.7321Z" fill="#4780C4"/>
</g>
<defs>
<clipPath id="clip0_80_161">
<rect width="92.9538" height="92.9538" fill="white" transform="translate(0.0458984)"/>
</clipPath>
</defs>
</svg>
