<svg width="35" height="30" viewBox="0 0 35 30" fill="none" xmlns="http://www.w3.org/2000/svg">
<path d="M12.8249 7.34693L17.0983 14.382L21.3716 7.34693C22.1127 6.12687 23.3676 5.40088 24.7881 5.40088C26.8853 5.40088 29.0158 7.29079 29.0158 10.0681C29.0158 11.0489 28.5638 12.4608 27.2763 14.3001C26.0199 16.095 24.2436 17.9009 22.3031 19.5642C20.4447 21.1571 18.5639 22.5107 17.1071 23.4877C15.6478 22.5035 13.7621 21.1401 11.8986 19.5384C9.95558 17.8684 8.17644 16.0578 6.91795 14.2629C5.62584 12.4201 5.18066 11.0208 5.18066 10.0681C5.18066 7.29079 7.31124 5.40088 9.40844 5.40088C10.8289 5.40088 12.0838 6.12687 12.8249 7.34693Z" stroke="white" stroke-width="10"/>
</svg>
