<svg width="24" height="24" viewBox="0 0 24 24" fill="none" xmlns="http://www.w3.org/2000/svg">
<path d="M17 6.00055V6C17 5.0111 16.7068 4.0444 16.1574 3.22215C15.6079 2.39991 14.827 1.75904 13.9134 1.3806C12.9998 1.00217 11.9945 0.90315 11.0245 1.09608C10.0546 1.289 9.16373 1.76521 8.46447 2.46447C7.76521 3.16373 7.289 4.05465 7.09608 5.02455C6.90315 5.99446 7.00217 6.99979 7.3806 7.91342C7.75904 8.82705 8.39991 9.60794 9.22215 10.1574C10.0444 10.7068 11.0111 11 12 11H12.0005C13.326 10.9986 14.5968 10.4714 15.5341 9.5341C16.4714 8.59683 16.9986 7.32604 17 6.00055ZM11.9997 3C12.7951 3.00104 13.5576 3.31748 14.1201 3.87992C14.6825 4.44235 14.9989 5.20485 15 6.00023C15 6.59349 14.824 7.17343 14.4944 7.66671C14.1648 8.16006 13.6962 8.54458 13.1481 8.77164C12.5999 8.9987 11.9967 9.05811 11.4147 8.94236C10.8328 8.8266 10.2982 8.54088 9.87868 8.12132C9.45912 7.70176 9.1734 7.16722 9.05765 6.58527C8.94189 6.00333 9.0013 5.40013 9.22836 4.85195C9.45543 4.30377 9.83994 3.83524 10.3333 3.50559C10.8266 3.17601 11.4065 3.00006 11.9997 3Z" fill="#4780C4" stroke="#4780C4"/>
<path d="M6.99947 23H7H17H17.0005C17.7958 22.9992 18.5582 22.6829 19.1206 22.1206C19.6829 21.5582 19.9992 20.7958 20 20.0005V20V14.6328V14.6322C19.9986 13.4041 19.5101 12.2267 18.6417 11.3583C17.7733 10.4899 16.5959 10.0014 15.3678 10L15.3669 10C15.1394 10.0001 14.9168 10.0661 14.726 10.1899C13.9112 10.7083 12.9655 10.9836 11.9997 10.9835C11.0338 10.9834 10.088 10.7079 9.27325 10.1892C9.08255 10.0658 8.86026 10.0001 8.63309 10L8.63224 10C7.40412 10.0014 6.22671 10.4899 5.3583 11.3583C4.48989 12.2267 4.0014 13.4041 4 14.6322V14.6328L4 20L4 20.0005C4.00084 20.7958 4.31712 21.5582 4.87945 22.1206C5.44178 22.6829 6.20422 22.9992 6.99947 23ZM6.74488 12.7997C7.18905 12.3423 7.78273 12.0625 8.41494 12.0093C9.50149 12.6458 10.7388 12.982 12 12.982C13.2612 12.982 14.4985 12.6458 15.585 12.0093C16.2173 12.0625 16.8109 12.3423 17.2551 12.7997C17.7321 13.291 17.9993 13.9486 18 14.6333V19.9995C17.9997 20.2647 17.8942 20.5191 17.7066 20.7066C17.5191 20.8942 17.2647 20.9997 16.9995 21H7.00055C6.73527 20.9997 6.48095 20.8942 6.29337 20.7066C6.10584 20.5191 6.00034 20.2649 6 19.9997V14.6331C6.00078 13.9485 6.26792 13.2909 6.74488 12.7997Z" fill="#4780C4" stroke="#4780C4"/>
</svg>
