<svg width="59" height="55" viewBox="0 0 59 55" fill="none" xmlns="http://www.w3.org/2000/svg">
<path fill-rule="evenodd" clip-rule="evenodd" d="M17.0442 38.9583C17.0442 32.2002 23.3336 29.7916 29.2187 29.7916C35.1039 29.7916 41.3932 32.2002 41.3932 38.9583C41.3932 47.2335 17.0442 47.2335 17.0442 38.9583ZM24.3489 20.625C24.3489 18.0973 26.533 16.0416 29.2187 16.0416C31.9044 16.0416 34.0885 18.0973 34.0885 20.625C34.0885 23.1527 31.9044 25.2083 29.2187 25.2083C26.533 25.2083 24.3489 23.1527 24.3489 20.625ZM36.7255 26.3954C38.0988 24.8141 38.9583 22.8227 38.9583 20.625C38.9583 15.5696 34.5901 11.4583 29.2187 11.4583C23.8473 11.4583 19.4791 15.5696 19.4791 20.625C19.4791 22.8227 20.3386 24.8141 21.7119 26.3954C15.8122 28.4327 12.1744 32.9748 12.1744 38.9583C12.1744 42.4439 14.2417 45.446 17.9938 47.4077C20.9985 48.9775 24.9844 49.8437 29.2187 49.8437C37.4267 49.8437 46.263 46.4383 46.263 38.9583C46.263 32.9748 42.6252 28.4327 36.7255 26.3954Z" fill="#4780C4"/>
</svg>
